Coordinates
version=1
nRows=32
nColumns=12
inDegrees=yes

Units are S.I. units (second, meters, Newtons, ...)
Angles are in degrees

endheader
time	SC_y	SC_z	SC_x	AC_y	AC_z	AC_x	GH_y	GH_z	GH_yy	EL_x	PS_y
       0.0              -31.99          18.27          29.77          45.61         0.5455         -6.472           66.4          38.69          148.6          14.23          50.57
   0.03303              -31.99          18.27          29.76          45.62         0.5444         -6.472          66.37           38.7          148.6          14.25          50.59
   0.06606              -31.99          18.26          29.76          45.62         0.5433         -6.472          66.35           38.7          148.6          14.26           50.6
    0.0991               -32.0          18.26          29.76          45.63         0.5422         -6.472          66.32           38.7          148.5          14.27          50.61
    0.1321               -32.0          18.26          29.76          45.63         0.5409         -6.473           66.3          38.71          148.5          14.29          50.62
    0.1652               -32.0          18.26          29.75          45.63         0.5396         -6.473          66.27          38.71          148.5          14.31          50.64
    0.1982               -32.0          18.26          29.75          45.64         0.5382         -6.473          66.23          38.71          148.5          14.33          50.65
    0.2312              -32.01          18.25          29.75          45.64         0.5367         -6.473           66.2          38.72          148.5          14.34          50.67
    0.2643              -32.01          18.25          29.74          45.65         0.5351         -6.473          66.16          38.72          148.5          14.37          50.69
    0.2973              -32.01          18.25          29.74          45.65         0.5333         -6.473          66.12          38.73          148.5          14.39          50.71
    0.3303              -32.02          18.25          29.73          45.66         0.5315         -6.473          66.08          38.73          148.5          14.41          50.73
    0.3634              -32.02          18.24          29.73          45.67         0.5295         -6.473          66.04          38.74          148.5          14.44          50.75
    0.3964              -32.02          18.24          29.73          45.67         0.5273         -6.474          65.99          38.75          148.5          14.46          50.78
    0.4294              -32.03          18.24          29.72          45.68          0.525         -6.474          65.94          38.75          148.5          14.49           50.8
    0.4624              -32.03          18.23          29.71          45.69         0.5225         -6.474          65.88          38.76          148.5          14.53          50.83
    0.4955              -32.04          18.23          29.71           45.7         0.5197         -6.474          65.82          38.77          148.5          14.56          50.86
    0.5285              -32.05          18.23           29.7          45.71         0.5167         -6.475          65.75          38.78          148.4           14.6          50.89
    0.5615              -32.05          18.22          29.69          45.72         0.5135         -6.475          65.68          38.78          148.4          14.64          50.93
    0.5946              -32.06          18.22          29.69          45.73           0.51         -6.475           65.6          38.79          148.4          14.69          50.97
    0.6276              -32.07          18.21          29.68          45.74         0.5061         -6.475          65.51          38.81          148.4          14.74          51.01
    0.6606              -32.07           18.2          29.67          45.75         0.5018         -6.476          65.41          38.82          148.4          14.79          51.06
    0.6937              -32.08           18.2          29.66          45.77         0.4971         -6.476          65.31          38.83          148.4          14.85          51.11
    0.7267              -32.09          18.19          29.64          45.78          0.492         -6.477          65.19          38.85          148.4          14.92          51.17
    0.7597               -32.1          18.18          29.63           45.8         0.4862         -6.477          65.06          38.86          148.3          14.99          51.23
    0.7928              -32.12          18.17          29.62          45.82         0.4799         -6.478          64.92          38.88          148.3          15.07          51.31
    0.8258              -32.13          18.16           29.6          45.84         0.4727         -6.478          64.76           38.9          148.3          15.16          51.38
    0.8588              -32.15          18.15          29.58          45.87         0.4648         -6.479          64.58          38.92          148.2          15.27          51.47
    0.8919              -32.16          18.14          29.56           45.9         0.4558          -6.48          64.37          38.95          148.2          15.38          51.57
    0.9249              -32.18          18.12          29.54          45.93         0.4457         -6.481          64.15          38.98          148.2          15.51          51.69
    0.9579               -32.2          18.11          29.51          45.97         0.4342         -6.481          63.89          39.01          148.1          15.66          51.81
     0.991              -32.23          18.09          29.48          46.01         0.4211         -6.483          63.59          39.05          148.1          15.83          51.96
     1.024              -32.26          18.07          29.45          46.06          0.406         -6.484          63.25          39.09          148.0          16.02          52.13
